<svg xmlns="http://www.w3.org/2000/svg" viewBox="0 0 32 32" shape-rendering="crispEdges">
  <rect width="32" height="32" fill="#06060f"/>

  <!-- Gold chip -->
  <g transform="translate(2 3)">
    <rect x="2" y="0" width="24" height="1" fill="#ffcf3d"/>
    <rect x="5" y="0" width="2" height="1" fill="#ffffff"/>
    <rect x="11" y="0" width="2" height="1" fill="#ffffff"/>
    <rect x="17" y="0" width="2" height="1" fill="#ffffff"/>
    <rect x="23" y="0" width="2" height="1" fill="#ffffff"/>
    <rect x="1" y="1" width="26" height="1" fill="#fff5c8"/>
    <rect x="0" y="2" width="28" height="4" fill="#ffcf3d"/>
    <rect x="11" y="3" width="6" height="2" fill="#ffffff"/>
    <rect x="1" y="6" width="26" height="1" fill="#a8810a"/>
    <rect x="2" y="7" width="24" height="1" fill="#ffcf3d"/>
    <rect x="5" y="7" width="2" height="1" fill="#ffffff"/>
    <rect x="11" y="7" width="2" height="1" fill="#ffffff"/>
    <rect x="17" y="7" width="2" height="1" fill="#ffffff"/>
    <rect x="23" y="7" width="2" height="1" fill="#ffffff"/>
  </g>

  <!-- Cyan chip -->
  <g transform="translate(2 12)">
    <rect x="2" y="0" width="24" height="1" fill="#3df2ff"/>
    <rect x="5" y="0" width="2" height="1" fill="#ffffff"/>
    <rect x="11" y="0" width="2" height="1" fill="#ffffff"/>
    <rect x="17" y="0" width="2" height="1" fill="#ffffff"/>
    <rect x="23" y="0" width="2" height="1" fill="#ffffff"/>
    <rect x="1" y="1" width="26" height="1" fill="#c8faff"/>
    <rect x="0" y="2" width="28" height="4" fill="#3df2ff"/>
    <rect x="11" y="3" width="6" height="2" fill="#ffffff"/>
    <rect x="1" y="6" width="26" height="1" fill="#11808a"/>
    <rect x="2" y="7" width="24" height="1" fill="#3df2ff"/>
    <rect x="5" y="7" width="2" height="1" fill="#ffffff"/>
    <rect x="11" y="7" width="2" height="1" fill="#ffffff"/>
    <rect x="17" y="7" width="2" height="1" fill="#ffffff"/>
    <rect x="23" y="7" width="2" height="1" fill="#ffffff"/>
  </g>

  <!-- Magenta chip -->
  <g transform="translate(2 21)">
    <rect x="2" y="0" width="24" height="1" fill="#ff3df2"/>
    <rect x="5" y="0" width="2" height="1" fill="#ffffff"/>
    <rect x="11" y="0" width="2" height="1" fill="#ffffff"/>
    <rect x="17" y="0" width="2" height="1" fill="#ffffff"/>
    <rect x="23" y="0" width="2" height="1" fill="#ffffff"/>
    <rect x="1" y="1" width="26" height="1" fill="#ffc8fa"/>
    <rect x="0" y="2" width="28" height="4" fill="#ff3df2"/>
    <rect x="11" y="3" width="6" height="2" fill="#ffffff"/>
    <rect x="1" y="6" width="26" height="1" fill="#8a118a"/>
    <rect x="2" y="7" width="24" height="1" fill="#ff3df2"/>
    <rect x="5" y="7" width="2" height="1" fill="#ffffff"/>
    <rect x="11" y="7" width="2" height="1" fill="#ffffff"/>
    <rect x="17" y="7" width="2" height="1" fill="#ffffff"/>
    <rect x="23" y="7" width="2" height="1" fill="#ffffff"/>
  </g>
</svg>
